<svg width="48" height="48" viewBox="0 0 48 48" fill="none" xmlns="http://www.w3.org/2000/svg">
<path d="M28.375 24C28.375 25.1603 27.9141 26.2731 27.0936 27.0936C26.2731 27.9141 25.1603 28.375 24 28.375C22.8397 28.375 21.7269 27.9141 20.9064 27.0936C20.0859 26.2731 19.625 25.1603 19.625 24C19.625 23.7506 19.6512 23.5071 19.6965 23.2708H18.1667V29.0998C18.1667 29.5052 18.4948 29.8333 18.9002 29.8333H29.1012C29.2955 29.8329 29.4817 29.7555 29.619 29.618C29.7562 29.4804 29.8333 29.2941 29.8333 29.0998V23.2708H28.3035C28.3487 23.5071 28.375 23.7506 28.375 24V24ZM24 26.9167C24.3831 26.9166 24.7625 26.841 25.1164 26.6943C25.4703 26.5476 25.7919 26.3326 26.0627 26.0617C26.3335 25.7907 26.5483 25.469 26.6949 25.115C26.8414 24.761 26.9168 24.3817 26.9167 23.9985C26.9166 23.6154 26.841 23.2361 26.6943 22.8822C26.5476 22.5282 26.3326 22.2067 26.0617 21.9358C25.7907 21.665 25.469 21.4502 25.115 21.3037C24.761 21.1571 24.3817 21.0818 23.9985 21.0819C23.2248 21.0821 22.4828 21.3896 21.9358 21.9369C21.3889 22.4841 21.0817 23.2263 21.0819 24C21.0821 24.7737 21.3896 25.5157 21.9369 26.0627C22.4841 26.6097 23.2263 26.9169 24 26.9167V26.9167ZM27.5 20.9375H29.2485C29.3647 20.9375 29.4761 20.8915 29.5584 20.8094C29.6407 20.7274 29.6871 20.6162 29.6875 20.5V18.7515C29.6875 18.635 29.6413 18.5234 29.5589 18.4411C29.4766 18.3587 29.365 18.3125 29.2485 18.3125H27.5C27.3836 18.3125 27.2719 18.3587 27.1896 18.4411C27.1073 18.5234 27.061 18.635 27.061 18.7515V20.5C27.0625 20.7406 27.2594 20.9375 27.5 20.9375V20.9375ZM24 10C20.287 10 16.726 11.475 14.1005 14.1005C11.475 16.726 10 20.287 10 24C10 27.713 11.475 31.274 14.1005 33.8995C16.726 36.525 20.287 38 24 38C25.8385 38 27.659 37.6379 29.3576 36.9343C31.0561 36.2307 32.5995 35.1995 33.8995 33.8995C35.1995 32.5995 36.2307 31.0561 36.9343 29.3576C37.6379 27.659 38 25.8385 38 24C38 22.1615 37.6379 20.341 36.9343 18.6424C36.2307 16.9439 35.1995 15.4005 33.8995 14.1005C32.5995 12.8005 31.0561 11.7693 29.3576 11.0657C27.659 10.3621 25.8385 10 24 10V10ZM31.2917 29.6715C31.2917 30.5625 30.5625 31.2917 29.6715 31.2917H18.3285C17.4375 31.2917 16.7083 30.5625 16.7083 29.6715V18.3285C16.7083 17.4375 17.4375 16.7083 18.3285 16.7083H29.6715C30.5625 16.7083 31.2917 17.4375 31.2917 18.3285V29.6715V29.6715Z" fill="black"/>
</svg>
