<svg width="48" height="48" viewBox="0 0 48 48" fill="none" xmlns="http://www.w3.org/2000/svg">
<mask id="mask0_10_71" style="mask-type:alpha" maskUnits="userSpaceOnUse" x="10" y="10" width="28" height="28">
<path d="M10 10H38V38H10V10Z" fill="white"/>
</mask>
<g mask="url(#mask0_10_71)">
<mask id="mask1_10_71" style="mask-type:alpha" maskUnits="userSpaceOnUse" x="10" y="10" width="28" height="28">
<path d="M10 10H38V38H10V10Z" fill="white"/>
</mask>
<g mask="url(#mask1_10_71)">
<path d="M10 24C10 29.9768 13.7462 35.0798 19.0183 37.0877C18.89 35.9945 18.7535 34.192 19.0475 32.9273C19.3007 31.84 20.682 25.9997 20.682 25.9997C20.682 25.9997 20.2655 25.1655 20.2655 23.93C20.2655 21.9933 21.3878 20.5467 22.7867 20.5467C23.9767 20.5467 24.5507 21.4392 24.5507 22.509C24.5507 23.7048 23.7888 25.4922 23.3957 27.15C23.0678 28.5372 24.0922 29.6688 25.4595 29.6688C27.9363 29.6688 29.8415 27.0567 29.8415 23.286C29.8415 19.9482 27.4428 17.616 24.0187 17.616C20.0543 17.616 17.7268 20.5898 17.7268 23.664C17.7268 24.8622 18.1877 26.1455 18.764 26.8443C18.8131 26.8971 18.8479 26.9617 18.8648 27.0317C18.8818 27.1018 18.8804 27.1751 18.8608 27.2445C18.7547 27.6855 18.519 28.6317 18.4735 28.8253C18.4117 29.0797 18.2717 29.1345 18.0068 29.0108C16.2662 28.2012 15.1788 25.6567 15.1788 23.6127C15.1788 19.2155 18.372 15.1788 24.3862 15.1788C29.2208 15.1788 32.9787 18.624 32.9787 23.2277C32.9787 28.0308 29.9512 31.8972 25.7465 31.8972C24.3337 31.8972 23.0072 31.1622 22.5522 30.2953C22.5522 30.2953 21.8533 32.9577 21.6842 33.6087C21.3552 34.8733 20.4428 36.474 19.877 37.3828C21.1813 37.7842 22.565 38 24 38C31.7315 38 38 31.7315 38 24C38 16.2685 31.7315 10 24 10C16.2685 10 10 16.2685 10 24Z" fill="black"/>
</g>
</g>
</svg>
