<svg width="48" height="48" viewBox="0 0 48 48" fill="none" xmlns="http://www.w3.org/2000/svg">
<path d="M24 10C16.2688 10 10 16.2688 10 24C10 31.7313 16.2688 38 24 38C31.7313 38 38 31.7313 38 24C38 16.2688 31.7313 10 24 10ZM30.7281 20.5531C30.7375 20.7 30.7375 20.8531 30.7375 21.0031C30.7375 25.5906 27.2438 30.875 20.8594 30.875C18.8906 30.875 17.0656 30.3031 15.5281 29.3188C15.8094 29.35 16.0781 29.3625 16.3656 29.3625C17.9906 29.3625 19.4844 28.8125 20.675 27.8813C19.15 27.85 17.8687 26.85 17.4312 25.475C17.9656 25.5531 18.4469 25.5531 18.9969 25.4125C18.2116 25.253 17.5059 24.8265 16.9994 24.2056C16.493 23.5846 16.2171 22.8075 16.2188 22.0063V21.9625C16.6781 22.2219 17.2188 22.3812 17.7844 22.4031C17.3089 22.0862 16.9189 21.6569 16.6491 21.1532C16.3793 20.6495 16.2379 20.087 16.2375 19.5156C16.2375 18.8688 16.4063 18.2781 16.7094 17.7656C17.5809 18.8386 18.6685 19.7161 19.9015 20.3411C21.1344 20.9662 22.485 21.3249 23.8656 21.3938C23.375 19.0344 25.1375 17.125 27.2563 17.125C28.2563 17.125 29.1562 17.5438 29.7906 18.2188C30.575 18.0719 31.325 17.7781 31.9937 17.3844C31.7344 18.1875 31.1906 18.8656 30.4688 19.2937C31.1688 19.2187 31.8438 19.025 32.4688 18.7531C31.9969 19.4469 31.4062 20.0625 30.7281 20.5531Z" fill="black"/>
</svg>
